<?xml version="1.0" encoding="UTF-8"?>
<svg version="1.1" xmlns="http://www.w3.org/2000/svg" width="540" height="360">
<path d="M0 0 C178.2 0 356.4 0 540 0 C540 118.8 540 237.6 540 360 C361.8 360 183.6 360 0 360 C0 241.2 0 122.4 0 0 Z " fill="#FEFEFE" transform="translate(0,0)"/>
<path d="M0 0 C10.81427129 8.16587832 16.48121761 19.40904986 18.38427734 32.6796875 C20.33612572 49.28553998 20.33612572 49.28553998 16.86621094 54.80273438 C13.79250838 57.86598927 10.11133059 59.56611069 6.11865234 61.15576172 C3.90126776 62.03934272 1.76588861 63.0356945 -0.38671875 64.06640625 C-10.90604795 69 -10.90604795 69 -15 69 C-15.25652344 68.39414063 -15.51304687 67.78828125 -15.77734375 67.1640625 C-18.58469089 61.02003677 -21.98400485 56.47578483 -26.59375 51.56640625 C-35.92269963 41.61653627 -44.17396019 31.68451823 -44.1875 17.5625 C-44.20167969 16.24378906 -44.21585938 14.92507812 -44.23046875 13.56640625 C-44.02228903 10.3449133 -43.72168766 8.66079001 -42 6 C-41.76925781 7.0621875 -41.53851563 8.124375 -41.30078125 9.21875 C-39.55116549 16.92708317 -37.96074066 23.66576437 -33 30 C-32.443125 30.886875 -31.88625 31.77375 -31.3125 32.6875 C-26.29963389 37.70036611 -20.40013728 40.2949857 -13.3125 40.5 C-8.55399009 40.27789133 -5.20220333 39.18864757 -1 37 C-0.01 36.67 0.98 36.34 2 36 C3.16953416 33.57616923 3.16953416 33.57616923 4 31 C4.33 30.34 4.66 29.68 5 29 C5.83127661 19.71345275 5.21549859 12.77690126 1.09375 4.29296875 C0 2 0 2 0 0 Z " fill="#3BB54B" transform="translate(289,140)"/>
<path d="M0 0 C8.11622744 -0.44905357 14.49975628 -0.03354456 20.8125 5.4375 C25.54709645 10.98374155 27.50565862 14.81068675 27.3984375 22.1875 C26.0410648 31.76895436 18.63409372 39.47273549 12 46 C11.29230469 46.71542969 10.58460938 47.43085938 9.85546875 48.16796875 C-7.88135946 64.31642428 -32.75062979 73.4834076 -56.5546875 73.28125 C-63.97287925 72.67568333 -69.86021008 69.26216588 -75 64 C-78.19129038 58.36205366 -78.98866084 53.13858025 -77.49609375 46.890625 C-75.92217203 42.10590297 -73.7934172 39.28079325 -70 36 C-70.495 36.928125 -70.495 36.928125 -71 37.875 C-72.78559589 43.45498715 -72.75659117 48.84968826 -70.8125 54.375 C-68.0361398 58.39593546 -64.55768126 61.24417197 -60 63 C-37.3796813 65.12554924 -17.19602254 57.35850141 0.765625 43.859375 C3.06151102 42.01520368 3.06151102 42.01520368 5.171875 39.765625 C7 38 7 38 9 38 C9.41572266 37.13375 9.41572266 37.13375 9.83984375 36.25 C11.32730477 33.36522711 13.09593345 30.70884888 14.87890625 28 C17.48070338 23.35846645 17.61466986 18.1983508 17 13 C15.61537429 8.7293472 13.43488795 5.98189299 9.625 3.625 C6.29719006 2.13322313 3.60972257 1.35216806 0 1 C0 0.67 0 0.34 0 0 Z " fill="#29AAE1" transform="translate(308,151)"/>
<path d="M0 0 C0.66 0.33 1.32 0.66 2 1 C-7.80062579 23.34714747 -19.77996453 41.20778004 -41 54 C-41.66 53.67 -42.32 53.34 -43 53 C-42.43152344 52.30777344 -41.86304688 51.61554688 -41.27734375 50.90234375 C-33.88006925 41.52916956 -27.31408118 31.7571542 -26.36938477 19.60131836 C-26.04880563 15.8976612 -25.57696636 13.45154646 -24 10 C-19.35725575 6.53194132 -13.65039947 5.1247564 -8.12646484 3.64990234 C-5.71616734 2.97820138 -5.71616734 2.97820138 -2.55078125 1.26953125 C-1.70902344 0.85058594 -0.86726563 0.43164062 0 0 Z " fill="#3BB54B" transform="translate(300,214)"/>
<path d="M0 0 C2.03125 1.38671875 2.03125 1.38671875 4.03125 4.38671875 C2.94585937 4.36351563 1.86046875 4.3403125 0.7421875 4.31640625 C-0.70311807 4.29763605 -2.14843115 4.27943719 -3.59375 4.26171875 C-4.30660156 4.24496094 -5.01945312 4.22820312 -5.75390625 4.2109375 C-10.2299664 4.16987273 -13.74824278 4.69585308 -17.96875 6.38671875 C-16.88335937 6.36351562 -15.79796875 6.3403125 -14.6796875 6.31640625 C-13.23438193 6.29763605 -11.78906885 6.27943719 -10.34375 6.26171875 C-9.63089844 6.24496094 -8.91804688 6.22820312 -8.18359375 6.2109375 C-3.7075336 6.16987273 -0.18925722 6.69585308 4.03125 8.38671875 C2.67356796 13.27437408 0.36090579 14.91262973 -3.96875 17.38671875 C-12.23859231 20.14333285 -19.99304587 18.0432286 -27.99609375 15.34375 C-31.36060918 14.26056172 -34.46172367 13.71295376 -37.96875 13.38671875 C-34.5406122 5.90714537 -28.65129146 0.25005566 -20.9453125 -2.81640625 C-13.0315778 -4.93504389 -7.1852622 -3.78590556 0 0 Z " fill="#3BB54C" transform="translate(249.96875,122.61328125)"/>
<path d="M0 0 C-0.19335938 0.65484375 -0.38671875 1.3096875 -0.5859375 1.984375 C-2.03143118 7.05075879 -3.18257326 11.96100972 -3.875 17.1875 C-4.99530016 24.26742973 -7.4188418 28.85818788 -12.9375 33.4375 C-16.04791796 35.02444794 -18.53992749 35.67046929 -22 36 C-21.61329478 26.56439256 -19.25708902 20.15095888 -13 13 C-19.19176282 18.66104029 -22.93076851 25.24615203 -26 33 C-28.70869429 30.29130571 -28.36225554 28.72185348 -28.4375 24.9375 C-28.29718322 17.45944084 -26.56482941 12.45841659 -21.16796875 7.22265625 C-14.69039873 1.99716091 -8.30530976 -0.51908186 0 0 Z " fill="#3CB54C" transform="translate(292,93)"/>
<path d="M0 0 C5.21333445 0.491824 8.12718118 2.99547909 11.5625 6.8125 C15.18439194 11.98663135 16.19827726 16.02236018 15.3125 22.3125 C13.75 25.3125 13.75 25.3125 11.3125 27.3125 C7.02708537 28.66161201 5.15172815 28.7403418 1.125 26.6875 C-4.2559158 22.14361554 -7.29232887 17.93490206 -8.0625 10.875 C-7.53881974 5.90003749 -5.33893647 0.62080657 0 0 Z " fill="#3DB54D" transform="translate(272.6875,141.6875)"/>
<path d="M0 0 C0.66 0 1.32 0 2 0 C6.8637248 9.32792935 9.25793379 18.95113013 6.3359375 29.3671875 C4.04749774 34.00376546 0.47785728 35.88319474 -4 38 C-7.03521394 39.01173798 -9.19733079 39.16573514 -12.375 39.1875 C-13.31085938 39.20167969 -14.24671875 39.21585938 -15.2109375 39.23046875 C-18.16118154 38.98668108 -20.32364112 38.23112508 -23 37 C-22.401875 36.731875 -21.80375 36.46375 -21.1875 36.1875 C-19.00152146 35.00082594 -17.58667406 33.90400887 -16 32 C-16 31.34 -16 30.68 -16 30 C-15.34 30 -14.68 30 -14 30 C-13.67 28.68 -13.34 27.36 -13 26 C-11.948125 26.268125 -10.89625 26.53625 -9.8125 26.8125 C-5.95613856 27.37082017 -5.95613856 27.37082017 -3.0625 25.125 C-0.31165181 20.95704819 -0.30589754 17.8587172 -1 13 C-1.86653414 10.06919326 -1.86653414 10.06919326 -3 8 C-1.625 6.5 -1.625 6.5 0 5 C0.66 5 1.32 5 2 5 C2 4.34 2 3.68 2 3 C1.34 3 0.68 3 0 3 C0 2.01 0 1.02 0 0 Z " fill="#F7FBF7" transform="translate(288,142)"/>
<path d="M0 0 C1.32 0.33 2.64 0.66 4 1 C4 2.98 4 4.96 4 7 C6.99601066 6.20541005 6.99601066 6.20541005 8.9375 4.375 C11 3 11 3 13.25 3.3125 C13.8275 3.539375 14.405 3.76625 15 4 C14.51421457 7.12290635 14.0013988 9.99580359 13 13 C12.34 13 11.68 13 11 13 C11 14.65 11 16.3 11 18 C9.35 18.33 7.7 18.66 6 19 C5.34 17.68 4.68 16.36 4 15 C2.329375 15.2784375 2.329375 15.2784375 0.625 15.5625 C-3 16 -3 16 -5 15 C-4.75 12.625 -4.75 12.625 -4 10 C-1.9375 8.6875 -1.9375 8.6875 0 8 C0 7.01 0 6.02 0 5 C0 3.33333333 0 1.66666667 0 0 Z " fill="#FBF9F0" transform="translate(243,95)"/>
<path d="M0 0 C0 0.66 0 1.32 0 2 C-0.66 2 -1.32 2 -2 2 C-2.33 3.65 -2.66 5.3 -3 7 C-3.99 7.33 -4.98 7.66 -6 8 C-6 8.99 -6 9.98 -6 11 C-6.99 11.391875 -7.98 11.78375 -9 12.1875 C-16.98318071 15.54695067 -16.98318071 15.54695067 -22.5 21.8125 C-22.665 22.534375 -22.83 23.25625 -23 24 C-23.99 23.67 -24.98 23.34 -26 23 C-28.90583408 24.11174437 -28.90583408 24.11174437 -32.0625 25.75 C-37.61442382 28.42637583 -43.03776257 30.46569962 -49 32 C-49 31.34 -49 30.68 -49 30 C-49.99 29.67 -50.98 29.34 -52 29 C-50.9018396 28.66585083 -50.9018396 28.66585083 -49.78149414 28.32495117 C-42.27734148 25.94654985 -35.39172199 22.98816018 -28.4375 19.3125 C-27.43678467 18.78720703 -26.43606934 18.26191406 -25.4050293 17.72070312 C-17.22879436 13.32658584 -10.28737092 8.49822523 -3.85546875 1.75 C-2 0 -2 0 0 0 Z " fill="#E8F5F5" transform="translate(326,192)"/>
<path d="M0 0 C0.33 0 0.66 0 1 0 C1 6.27 1 12.54 1 19 C1.99 19.33 2.98 19.66 4 20 C-5.51517627 27.64012682 -16.92566156 35.38127984 -29 38 C-32.3828125 37.12109375 -32.3828125 37.12109375 -35 36 C-34.34 34.68 -33.68 33.36 -33 32 C-33 32.99 -33 33.98 -33 35 C-21.6312115 30.5683277 -11.19008336 25.79338891 -1 19 C-0.49378487 16.97723319 -0.49378487 16.97723319 -0.48828125 14.6484375 C-0.45283203 13.79765625 -0.41738281 12.946875 -0.38085938 12.0703125 C-0.35830078 11.18085938 -0.33574219 10.29140625 -0.3125 9.375 C-0.27833984 8.4778125 -0.24417969 7.580625 -0.20898438 6.65625 C-0.12637598 4.43762462 -0.05727281 2.2194006 0 0 Z " fill="#E6F5F1" transform="translate(307,174)"/>
<path d="M0 0 C8.11622744 -0.44905357 14.49975628 -0.03354456 20.8125 5.4375 C24.99875568 10.34139951 27.1389454 13.46878514 27.1875 20.0625 C27.20167969 20.94035156 27.21585937 21.81820312 27.23046875 22.72265625 C27 25 27 25 25 27 C22.88547762 24.88547762 23.55438351 20.43004574 23.37890625 17.56640625 C23.23688035 14.8393833 23.23688035 14.8393833 21 13 C20.01 13 19.02 13 18 13 C16.94721175 11.70794169 15.95824253 10.36365283 15 9 C10.15909277 3.78671529 7.02306801 1.95769109 0 1 C0 0.67 0 0.34 0 0 Z " fill="#37AFE2" transform="translate(308,151)"/>
<path d="M0 0 C0 0.66 0 1.32 0 2 C0.99 2.66 1.98 3.32 3 4 C2.34 4 1.68 4 1 4 C1 4.99 1 5.98 1 7 C1.66 7.33 2.32 7.66 3 8 C-5.74392018 9.79362465 -14.08530089 10.23737365 -23 10 C-23 9.01 -23 8.02 -23 7 C-17.72 7.33 -12.44 7.66 -7 8 C-6.67 6.68 -6.34 5.36 -6 4 C-8.43387753 2.78306124 -10.41838846 2.68040104 -13.125 2.4375 C-14.03507812 2.35371094 -14.94515625 2.26992187 -15.8828125 2.18359375 C-16.58148438 2.12300781 -17.28015625 2.06242188 -18 2 C-18 1.67 -18 1.34 -18 1 C-15.75013201 0.83156069 -13.50009983 0.66531346 -11.25 0.5 C-9.37054688 0.36078125 -9.37054688 0.36078125 -7.453125 0.21875 C-4.97265229 0.06161598 -2.48544483 0 0 0 Z " fill="#2FACE2" transform="translate(271,214)"/>
<path d="M0 0 C0 0.99 0 1.98 0 3 C-0.66 3 -1.32 3 -2 3 C-1.67 4.65 -1.34 6.3 -1 8 C-0.34 8 0.32 8 1 8 C1.33 7.34 1.66 6.68 2 6 C2.33 6.66 2.66 7.32 3 8 C4.88764903 8.68472665 4.88764903 8.68472665 7.0625 9.125 C8.16271484 9.37636719 8.16271484 9.37636719 9.28515625 9.6328125 C9.85105469 9.75398437 10.41695312 9.87515625 11 10 C9.68 10.33 8.36 10.66 7 11 C7 11.66 7 12.32 7 13 C6.43152344 12.86722656 5.86304688 12.73445312 5.27734375 12.59765625 C0.52848903 11.5115242 -4.16780324 10.61687618 -9 10 C-3.52830189 0 -3.52830189 0 0 0 Z " fill="#3DB54F" transform="translate(221,126)"/>
<path d="M0 0 C0.7412036 2.30596675 1.10276212 3.63462359 0.4375 6 C-0.13872199 8.63415768 0.73621701 9.69347591 2 12 C0.44210317 13.13136586 -1.12153857 14.25482321 -2.6875 15.375 C-3.55761719 16.00148438 -4.42773438 16.62796875 -5.32421875 17.2734375 C-7.83596952 18.89415843 -10.19299187 19.99858088 -13 21 C-12.45472656 20.19949219 -12.45472656 20.19949219 -11.8984375 19.3828125 C-5.5280372 9.94392621 -5.5280372 9.94392621 0 0 Z " fill="#41B651" transform="translate(270,247)"/>
<path d="M0 0 C0 3 0 3 -1 5 C-1.07033395 8.05513081 -0.99689562 11.0971815 -0.9375 14.15234375 C-1 17 -1 17 -2 20 C-2.99 20 -3.98 20 -5 20 C-5.33 20.66 -5.66 21.32 -6 22 C-7 21 -7 21 -7.25 17.4375 C-7.150323 10.48502901 -4.65414585 5.13560921 0 0 Z " fill="#3BB2E2" transform="translate(237,187)"/>
<path d="M0 0 C0.77923828 0.00902344 1.55847656 0.01804687 2.36132812 0.02734375 C4.26185447 0.05066309 6.16222008 0.08652414 8.0625 0.125 C8.3925 1.445 8.7225 2.765 9.0625 4.125 C5.53546728 5.25868909 5.53546728 5.25868909 3.41796875 4.66015625 C0.00200494 3.88405834 -3.39160027 3.98094768 -6.875 4 C-7.92977539 3.99419922 -7.92977539 3.99419922 -9.00585938 3.98828125 C-12.77562512 3.99534735 -16.27343938 4.221533 -19.9375 5.125 C-14.09486089 -0.01652242 -7.38831233 -0.16460679 0 0 Z " fill="#CEEED0" transform="translate(246.9375,125.875)"/>
<path d="M0 0 C0.66 0.33 1.32 0.66 2 1 C1.2575 1.763125 0.515 2.52625 -0.25 3.3125 C-4.97807671 8.96738721 -7.21717797 16.75889621 -8 24 C-6.68 23.67 -5.36 23.34 -4 23 C-4.33 23.66 -4.66 24.32 -5 25 C-6.32 25 -7.64 25 -9 25 C-9.33 23.35 -9.66 21.7 -10 20 C-10.33 20.99 -10.66 21.98 -11 23 C-11.66 23 -12.32 23 -13 23 C-10.56959767 14.17380206 -6.71512562 6.33803433 0 0 Z " fill="#DBF4DE" transform="translate(278,105)"/>
<path d="M0 0 C1.32 0.33 2.64 0.66 4 1 C4.53904065 6.39040653 3.11936806 10.62871165 0 15 C-0.99 15.33 -1.98 15.66 -3 16 C-3.66 15.67 -4.32 15.34 -5 15 C-4.75 12.625 -4.75 12.625 -4 10 C-1.9375 8.6875 -1.9375 8.6875 0 8 C0 7.01 0 6.02 0 5 C0 3.33333333 0 1.66666667 0 0 Z " fill="#FADBA9" transform="translate(243,95)"/>
<path d="M0 0 C0.89203125 0.00902344 1.7840625 0.01804687 2.703125 0.02734375 C3.37859375 0.03894531 4.0540625 0.05054687 4.75 0.0625 C4.09 0.7225 3.43 1.3825 2.75 2.0625 C3.41 2.7225 4.07 3.3825 4.75 4.0625 C4.09 4.0625 3.43 4.0625 2.75 4.0625 C2.75 4.7225 2.75 5.3825 2.75 6.0625 C2.01394531 5.918125 1.27789062 5.77375 0.51953125 5.625 C-0.94419922 5.3465625 -0.94419922 5.3465625 -2.4375 5.0625 C-3.40042969 4.876875 -4.36335937 4.69125 -5.35546875 4.5 C-8.0434206 4.09372388 -10.53771019 3.98316428 -13.25 4.0625 C-8.88011742 0.4729536 -5.58532401 -0.07349111 0 0 Z " fill="#46B856" transform="translate(237.25,118.9375)"/>
<path d="M0 0 C1.6875 1.25 1.6875 1.25 2.6875 3.25 C1.3675 3.25 0.0475 3.25 -1.3125 3.25 C-1.3125 3.91 -1.3125 4.57 -1.3125 5.25 C0.0075 5.58 1.3275 5.91 2.6875 6.25 C0.32796906 8.60953094 -1.09145617 8.74141413 -4.3125 9.25 C-4.6425 6.94 -4.9725 4.63 -5.3125 2.25 C-6.3025 1.92 -7.2925 1.59 -8.3125 1.25 C-2.93226549 -0.95100503 -2.93226549 -0.95100503 0 0 Z " fill="#35B0E3" transform="translate(283.3125,210.75)"/>
<path d="M0 0 C-0.38520564 2.53910197 -0.70097943 3.72751123 -2.62890625 5.484375 C-3.26699219 5.90203125 -3.90507812 6.3196875 -4.5625 6.75 C-5.20316406 7.17796875 -5.84382813 7.6059375 -6.50390625 8.046875 C-7.24447266 8.51867187 -7.24447266 8.51867187 -8 9 C-8.309375 8.05125 -8.61875 7.1025 -8.9375 6.125 C-9.87394742 3.13919592 -9.87394742 3.13919592 -11 1 C-9.54182203 0.83197949 -8.0834516 0.66562857 -6.625 0.5 C-5.81289063 0.4071875 -5.00078125 0.314375 -4.1640625 0.21875 C-2 0 -2 0 0 0 Z " fill="#37B347" transform="translate(281,101)"/>
<path d="M0 0 C0 3.42085146 -0.78105603 5.81720186 -2 9 C-2.66 9.66 -3.32 10.32 -4 11 C-5.32 11 -6.64 11 -8 11 C-10.73219193 12.91859167 -10.73219193 12.91859167 -13 15 C-13.66 14.67 -14.32 14.34 -15 14 C-14.16855469 13.24074219 -13.33710938 12.48148437 -12.48046875 11.69921875 C-11.38277925 10.69534886 -10.28512484 9.6914406 -9.1875 8.6875 C-8.64029297 8.18798828 -8.09308594 7.68847656 -7.52929688 7.17382812 C-4.96878163 4.83056872 -2.42060466 2.48855146 0 0 Z " fill="#E9F7E9" transform="translate(282,248)"/>
<path d="M0 0 C2 1.0625 2 1.0625 4 3 C4.45818515 7.76512559 3.76878757 12.29117616 3 17 C2.34 17 1.68 17 1 17 C-0.60080151 12.99799622 0.70720308 9.95443764 2 6 C1.34 6 0.68 6 0 6 C-0.33 6.66 -0.66 7.32 -1 8 C-1.33 5.69 -1.66 3.38 -2 1 C-1.34 0.67 -0.68 0.34 0 0 Z " fill="#21AADE" transform="translate(328,162)"/>
<path d="M0 0 C1.65 0 3.3 0 5 0 C5 2.64 5 5.28 5 8 C4.34 7.34 3.68 6.68 3 6 C2.67 9.96 2.34 13.92 2 18 C1.67 18 1.34 18 1 18 C1 14.37 1 10.74 1 7 C0.01 7.33 -0.98 7.66 -2 8 C-1.33333333 5.33333333 -0.66666667 2.66666667 0 0 Z " fill="#E1F3E2" transform="translate(243,144)"/>
<path d="M0 0 C0.33 0.99 0.66 1.98 1 3 C1.79664063 2.65775391 1.79664063 2.65775391 2.609375 2.30859375 C3.31578125 2.02113281 4.0221875 1.73367187 4.75 1.4375 C5.44609375 1.14746094 6.1421875 0.85742188 6.859375 0.55859375 C9.30012784 -0.07831803 10.6403655 0.19751169 13 1 C10.53752785 4.69370823 9.1165943 4.92598601 4.9765625 5.859375 C3 6 3 6 0.5 4.625 C0.005 4.08875 -0.49 3.5525 -1 3 C-0.67 2.01 -0.34 1.02 0 0 Z " fill="#EDF7F3" transform="translate(273,206)"/>
<path d="M0 0 C-2.33285443 3.49928164 -3.20795069 3.6329098 -7.125 4.6875 C-8.49011719 5.06455078 -8.49011719 5.06455078 -9.8828125 5.44921875 C-10.93082031 5.72185547 -10.93082031 5.72185547 -12 6 C-12 5.34 -12 4.68 -12 4 C-12.99 3.67 -13.98 3.34 -15 3 C-13.06643218 2.30151736 -11.12797702 1.61655186 -9.1875 0.9375 C-8.10855469 0.55464844 -7.02960938 0.17179688 -5.91796875 -0.22265625 C-3 -1 -3 -1 0 0 Z " fill="#EEF7F7" transform="translate(289,218)"/>
<path d="M0 0 C0.66 0 1.32 0 2 0 C2.69937202 1.4317616 3.38412718 2.87067032 4.0625 4.3125 C4.63677734 5.51326172 4.63677734 5.51326172 5.22265625 6.73828125 C6 9 6 9 5 12 C3.35173889 9.03312999 2.55728913 6.34373475 2 3 C1.34 3 0.68 3 0 3 C0 2.01 0 1.02 0 0 Z M0 5 C0.66 5 1.32 5 2 5 C2 5.99 2 6.98 2 8 C1.01 7.67 0.02 7.34 -1 7 C-0.67 6.34 -0.34 5.68 0 5 Z M-3 8 C-1.68 8.33 -0.36 8.66 1 9 C0.67 10.32 0.34 11.64 0 13 C-3 9.125 -3 9.125 -3 8 Z " fill="#E9F8EA" transform="translate(288,142)"/>
<path d="M0 0 C0.66 0 1.32 0 2 0 C2.185625 0.9590625 2.185625 0.9590625 2.375 1.9375 C2.684375 2.9584375 2.684375 2.9584375 3 4 C3.66 4.33 4.32 4.66 5 5 C7 6 9 7 11 8 C10.67 8.99 10.34 9.98 10 11 C6.01092106 9.63231579 2.99817654 7.99817654 0 5 C-0.3125 2.25 -0.3125 2.25 0 0 Z " fill="#34ACDE" transform="translate(234,211)"/>
<path d="M0 0 C0.33 0 0.66 0 1 0 C1 6.27 1 12.54 1 19 C1.99 19.33 2.98 19.66 4 20 C2.35 20.99 0.7 21.98 -1 23 C-1.99 22.34 -2.98 21.68 -4 21 C-3.01 20.34 -2.02 19.68 -1 19 C-0.49378487 16.97723319 -0.49378487 16.97723319 -0.48828125 14.6484375 C-0.43510742 13.37226563 -0.43510742 13.37226563 -0.38085938 12.0703125 C-0.35830078 11.18085938 -0.33574219 10.29140625 -0.3125 9.375 C-0.27833984 8.4778125 -0.24417969 7.580625 -0.20898438 6.65625 C-0.12637598 4.43762462 -0.05727281 2.2194006 0 0 Z " fill="#CDEDD5" transform="translate(307,174)"/>
<path d="M0 0 C0.66 0.66 1.32 1.32 2 2 C3.96690374 2.67292501 3.96690374 2.67292501 6.125 3.125 C7.40375 3.41375 8.6825 3.7025 10 4 C8.68 4.33 7.36 4.66 6 5 C6 5.66 6 6.32 6 7 C1.545 6.01 1.545 6.01 -3 5 C-2.67 4.01 -2.34 3.02 -2 2 C-1.34 2 -0.68 2 0 2 C0 1.34 0 0.68 0 0 Z " fill="#45B856" transform="translate(222,132)"/>
<path d="M0 0 C5.28 0.33 10.56 0.66 16 1 C14 3 14 3 10.7421875 3.1953125 C9.46601563 3.17210937 8.18984375 3.14890625 6.875 3.125 C4.95300781 3.09792969 4.95300781 3.09792969 2.9921875 3.0703125 C1.51105469 3.03550781 1.51105469 3.03550781 0 3 C0 2.01 0 1.02 0 0 Z " fill="#41B4E2" transform="translate(248,221)"/>
<path d="M0 0 C1.2065625 0.0309375 1.2065625 0.0309375 2.4375 0.0625 C2.4375 1.7125 2.4375 3.3625 2.4375 5.0625 C0.7875 5.3925 -0.8625 5.7225 -2.5625 6.0625 C-2.94468767 4.40635343 -3.27645102 2.73792976 -3.5625 1.0625 C-2.5625 0.0625 -2.5625 0.0625 0 0 Z " fill="#F6B344" transform="translate(251.5625,107.9375)"/>
<path d="M0 0 C2.1047116 3.42015636 2.16877959 6.03367953 2 10 C2 10.99 2 11.98 2 13 C1.34 13 0.68 13 0 13 C-2.21538462 5.73846154 -2.21538462 5.73846154 -1.125 2 C-0.75375 1.34 -0.3825 0.68 0 0 Z " fill="#41B650" transform="translate(273,240)"/>
<path d="M0 0 C0.33 0.66 0.66 1.32 1 2 C1.66 2 2.32 2 3 2 C2.67 4.64 2.34 7.28 2 10 C3.32 9.67 4.64 9.34 6 9 C5.67 9.66 5.34 10.32 5 11 C3.68 11 2.36 11 1 11 C0.67 9.35 0.34 7.7 0 6 C-0.33 6.99 -0.66 7.98 -1 9 C-1.66 9 -2.32 9 -3 9 C-2.01 6.03 -1.02 3.06 0 0 Z " fill="#C3E7C4" transform="translate(268,119)"/>
<path d="M0 0 C-0.33 0.99 -0.66 1.98 -1 3 C-4.93670488 4.31223496 -7.12488144 3.24296256 -11 2 C-10.67 1.34 -10.34 0.68 -10 0 C-2.58823529 -1.29411765 -2.58823529 -1.29411765 0 0 Z " fill="#E0F3E0" transform="translate(256,127)"/>
<path d="M0 0 C1.65 0 3.3 0 5 0 C5 1.65 5 3.3 5 5 C6.98 5 8.96 5 11 5 C11 5.33 11 5.66 11 6 C6.71 6 2.42 6 -2 6 C-0.68 5.67 0.64 5.34 2 5 C2 4.01 2 3.02 2 2 C1.34 1.34 0.68 0.68 0 0 Z " fill="#31B346" transform="translate(238,120)"/>
<path d="M0 0 C1.65 0.33 3.3 0.66 5 1 C1.25 7.875 1.25 7.875 -1 9 C-1.33 8.01 -1.66 7.02 -2 6 C-1.34 6 -0.68 6 0 6 C0 4.02 0 2.04 0 0 Z " fill="#F0F8F0" transform="translate(259,257)"/>
<path d="M0 0 C-0.33 0.66 -0.66 1.32 -1 2 C-1.22467831 3.53668865 -1.40796805 5.07968054 -1.5625 6.625 C-1.64628906 7.44226563 -1.73007812 8.25953125 -1.81640625 9.1015625 C-1.87699219 9.72804687 -1.93757813 10.35453125 -2 11 C-2.33 9.68 -2.66 8.36 -3 7 C-3.66 7 -4.32 7 -5 7 C-5 5.02 -5 3.04 -5 1 C-3 0 -3 0 0 0 Z " fill="#49BA5B" transform="translate(281,223)"/>
<path d="M0 0 C0.94875 0.04125 1.8975 0.0825 2.875 0.125 C2.545 0.785 2.215 1.445 1.875 2.125 C4.845 2.455 7.815 2.785 10.875 3.125 C10.875 3.455 10.875 3.785 10.875 4.125 C9.14619018 4.17949838 7.41687288 4.21801688 5.6875 4.25 C4.72457031 4.27320313 3.76164062 4.29640625 2.76953125 4.3203125 C-0.25312778 4.1163544 -2.39269985 3.39374632 -5.125 2.125 C-3.125 0.125 -3.125 0.125 0 0 Z " fill="#E1F4DF" transform="translate(270.125,176.875)"/>
<path d="M0 0 C1.32 1.32 2.64 2.64 4 4 C3.01 4 2.02 4 1 4 C0.67 4.99 0.34 5.98 0 7 C-1.32 7 -2.64 7 -4 7 C-4.33 6.01 -4.66 5.02 -5 4 C-4.01 3.67 -3.02 3.34 -2 3 C-1.34 2.01 -0.68 1.02 0 0 Z " fill="#47B758" transform="translate(253,168)"/>
<path d="M0 0 C1.32 0 2.64 0 4 0 C4 1.65 4 3.3 4 5 C3.01 5.33 2.02 5.66 1 6 C0.34 5.67 -0.32 5.34 -1 5 C-0.67 3.35 -0.34 1.7 0 0 Z " fill="#F6B64E" transform="translate(239,105)"/>
<path d="M0 0 C1.98 0.495 1.98 0.495 4 1 C3.67 2.65 3.34 4.3 3 6 C1.68 5.67 0.36 5.34 -1 5 C-0.67 3.35 -0.34 1.7 0 0 Z " fill="#F5B54F" transform="translate(254,98)"/>
<path d="M0 0 C0.66 0.33 1.32 0.66 2 1 C0.68 3.97 -0.64 6.94 -2 10 C-3 6 -3 6 -2 4 C-3.32 3.67 -4.64 3.34 -6 3 C-4.03533587 1.93224776 -2.03144641 0.93446535 0 0 Z " fill="#4ABA5D" transform="translate(300,214)"/>
<path d="M0 0 C3.16115776 1.36983503 3.9927092 1.9890638 6 5 C5.34 5 4.68 5 4 5 C4 5.66 4 6.32 4 7 C3.34 7 2.68 7 2 7 C1.67 6.34 1.34 5.68 1 5 C0.01 5.495 0.01 5.495 -1 6 C-0.67 4.02 -0.34 2.04 0 0 Z " fill="#37B146" transform="translate(255,172)"/>
<path d="M0 0 C1.4783226 2.95664519 1.06032783 5.74229737 1 9 C-1.72426311 6.64722731 -2.8141763 4.37503669 -4 1 C-2 0 -2 0 0 0 Z " fill="#ECF7ED" transform="translate(254,160)"/>
<path d="M0 0 C1 4 1 4 0.4375 6 C-0.13666014 8.62473206 0.63831556 9.75722562 2 12 C1.01 12.495 1.01 12.495 0 13 C-1.32 11.35 -2.64 9.7 -4 8 C-2.68 5.36 -1.36 2.72 0 0 Z " fill="#44B95C" transform="translate(270,247)"/>
<path d="M0 0 C1.32 0.33 2.64 0.66 4 1 C3.1875 3.4375 3.1875 3.4375 2 6 C1.01 6.33 0.02 6.66 -1 7 C-0.67 5.68 -0.34 4.36 0 3 C-1.32 2.67 -2.64 2.34 -4 2 C-2.68 2 -1.36 2 0 2 C0 1.34 0 0.68 0 0 Z " fill="#43B553" transform="translate(250,130)"/>
<path d="M0 0 C0.66 0 1.32 0 2 0 C1.67 1.65 1.34 3.3 1 5 C0.34 5 -0.32 5 -1 5 C-1.33 5.99 -1.66 6.98 -2 8 C-3.32 7.67 -4.64 7.34 -6 7 C-5.071875 6.6596875 -5.071875 6.6596875 -4.125 6.3125 C-1.38589791 4.62070165 -0.94975528 3.00755839 0 0 Z " fill="#46B857" transform="translate(293,171)"/>
<path d="M0 0 C2.97 0.495 2.97 0.495 6 1 C5.34 2.98 4.68 4.96 4 7 C3.01 6.67 2.02 6.34 1 6 C0.67 4.02 0.34 2.04 0 0 Z " fill="#34B449" transform="translate(247,166)"/>
<path d="M0 0 C0.99 1.485 0.99 1.485 2 3 C2.66 3 3.32 3 4 3 C3.21302675 6.41021743 2.12880057 9.68885166 1 13 C0.67 13 0.34 13 0 13 C0 8.71 0 4.42 0 0 Z " fill="#4BBB5A" transform="translate(264,111)"/>
<path d="M0 0 C2.31 0 4.62 0 7 0 C6.34 2.31 5.68 4.62 5 7 C4.34 6.67 3.68 6.34 3 6 C2.66666667 4.33333333 2.33333333 2.66666667 2 1 C1.34 0.67 0.68 0.34 0 0 Z " fill="#48BA58" transform="translate(285,93)"/>
<path d="M0 0 C1.32 0 2.64 0 4 0 C3.34 2.64 2.68 5.28 2 8 C1.34 8 0.68 8 0 8 C0 5.36 0 2.72 0 0 Z " fill="#F5F9F8" transform="translate(229,192)"/>
<path d="M0 0 C1.65 0 3.3 0 5 0 C5 2.64 5 5.28 5 8 C2.20127563 5.47211993 0.54226981 3.79588866 0 0 Z " fill="#CEEDD1" transform="translate(243,144)"/>
<path d="M0 0 C4.42857143 5.14285714 4.42857143 5.14285714 5 9 C2.525 8.01 2.525 8.01 0 7 C0 4.69 0 2.38 0 0 Z " fill="#46B95A" transform="translate(298,150)"/>
<path d="M0 0 C2.35953094 2.35953094 2.49141413 3.77895617 3 7 C1.68 7.33 0.36 7.66 -1 8 C-2 6 -2 6 -1.0625 2.875 C-0.5365625 1.451875 -0.5365625 1.451875 0 0 Z " fill="#E9F8FB" transform="translate(230,208)"/>
<path d="M0 0 C2.475 0.495 2.475 0.495 5 1 C5 1.66 5 2.32 5 3 C5.66 3.33 6.32 3.66 7 4 C5.02 4.33 3.04 4.66 1 5 C0.67 3.35 0.34 1.7 0 0 Z " fill="#4BB959" transform="translate(273,204)"/>
<path d="M0 0 C1.65 0 3.3 0 5 0 C4.01 0.495 4.01 0.495 3 1 C3 1.66 3 2.32 3 3 C4.65 2.67 6.3 2.34 8 2 C7.34 2.66 6.68 3.32 6 4 C2.375 3.625 2.375 3.625 -1 3 C-0.67 2.01 -0.34 1.02 0 0 Z " fill="#33B344" transform="translate(280,201)"/>
<path d="M0 0 C0 0.99 0 1.98 0 3 C-3.63 2.67 -7.26 2.34 -11 2 C-11 1.67 -11 1.34 -11 1 C-7.26562152 0.12132271 -3.83225427 -0.08912219 0 0 Z " fill="#EEF8FC" transform="translate(320,149)"/>
<path d="M0 0 C3 0 3 0 6 1 C5.34 2.32 4.68 3.64 4 5 C2.68 4.34 1.36 3.68 0 3 C0 2.01 0 1.02 0 0 Z M6 0 C8 1 8 1 8 1 Z " fill="#CDE8CF" transform="translate(287,137)"/>
<path d="M0 0 C0.66 0.66 1.32 1.32 2 2 C1.625 4.125 1.625 4.125 1 6 C1.66 6 2.32 6 3 6 C3 6.66 3 7.32 3 8 C1.35 7.67 -0.3 7.34 -2 7 C-1.42415568 4.61435923 -0.77772405 2.33317216 0 0 Z " fill="#FBF6EC" transform="translate(237,104)"/>
<path d="M0 0 C4.29 0 8.58 0 13 0 C13 0.99 13 1.98 13 3 C8.71 2.34 4.42 1.68 0 1 C0 0.67 0 0.34 0 0 Z " fill="#4EBAE9" transform="translate(253,215)"/>
<path d="M0 0 C2.475 0.99 2.475 0.99 5 2 C4.67 2.99 4.34 3.98 4 5 C4.66 5 5.32 5 6 5 C5.67 5.66 5.34 6.32 5 7 C2.5 5.1875 2.5 5.1875 0 3 C0 2.01 0 1.02 0 0 Z " fill="#E6F5E9" transform="translate(257,170)"/>
<path d="M0 0 C0.66 0 1.32 0 2 0 C1.67 2.64 1.34 5.28 1 8 C0.34 8 -0.32 8 -1 8 C-1.04241723 5.66705225 -1.04092937 3.33297433 -1 1 C-0.67 0.67 -0.34 0.34 0 0 Z " fill="#47BC58" transform="translate(266,148)"/>
<path d="M0 0 C0.66 0.99 1.32 1.98 2 3 C0.35 4.98 -1.3 6.96 -3 9 C-3.66 8.34 -4.32 7.68 -5 7 C-4.360625 6.21625 -3.72125 5.4325 -3.0625 4.625 C-1.01857687 2.20460719 -1.01857687 2.20460719 0 0 Z " fill="#DFF1DA" transform="translate(285,118)"/>
<path d="M0 0 C0.66 0.99 1.32 1.98 2 3 C0.68 4.32 -0.64 5.64 -2 7 C-2.33 6.01 -2.66 5.02 -3 4 C-1.5625 1.8125 -1.5625 1.8125 0 0 Z " fill="#F5F8F6" transform="translate(235,185)"/>
<path d="M0 0 C0.93065133 2.60582371 1.14917407 3.64198224 0.0625 6.25 C-0.4634375 7.11625 -0.4634375 7.11625 -1 8 C-1.99 8 -2.98 8 -4 8 C-2.87548273 5.0280615 -1.77706209 2.66559313 0 0 Z " fill="#DBF2F7" transform="translate(331,182)"/>
<path d="M0 0 C1.0326802 2.78823655 1.04509293 3.8677274 0.0625 6.75 C-0.288125 7.4925 -0.63875 8.235 -1 9 C-1.33 9 -1.66 9 -2 9 C-2.125 5.625 -2.125 5.625 -2 2 C-1.34 1.34 -0.68 0.68 0 0 Z " fill="#31B345" transform="translate(267,117)"/>
<path d="M0 0 C1.35439668 2.70879335 1.06501451 5.00933268 1 8 C-0.32 7.67 -1.64 7.34 -3 7 C-1.125 1.125 -1.125 1.125 0 0 Z " fill="#4AB957" transform="translate(269,102)"/>
<path d="M0 0 C1.98 0.66 3.96 1.32 6 2 C6 2.33 6 2.66 6 3 C3.03 3 0.06 3 -3 3 C-2.01 2.01 -1.02 1.02 0 0 Z " fill="#46B959" transform="translate(273,99)"/>
</svg>
